<svg id="Layer_1" data-name="Layer 1" xmlns="http://www.w3.org/2000/svg" viewBox="0 0 3000 1920"><defs><style>.cls-1{fill:gray;}</style></defs><title>logo</title><path class="cls-1" d="M1294.35,984.15h13v4.59h-19.1V961h6.12Z"/><path class="cls-1" d="M1333.91,975.5a15.66,15.66,0,0,1-1.55,7.18,11.18,11.18,0,0,1-4.43,4.77,13.91,13.91,0,0,1-13.2,0,11.25,11.25,0,0,1-4.48-4.73,15.32,15.32,0,0,1-1.61-7.07v-1.37a15.63,15.63,0,0,1,1.58-7.21,11.22,11.22,0,0,1,4.46-4.78,13.86,13.86,0,0,1,13.19,0,11.22,11.22,0,0,1,4.46,4.78,15.57,15.57,0,0,1,1.58,7.19Zm-6.19-1.25q0-4.37-1.68-6.63a6.15,6.15,0,0,0-9.52,0q-1.66,2.24-1.69,6.56v1.35a11.22,11.22,0,0,0,1.67,6.59,6.09,6.09,0,0,0,9.54.09c1.1-1.5,1.66-3.7,1.68-6.58Z"/><path class="cls-1" d="M1353.75,981.47a2.87,2.87,0,0,0-1.23-2.49,16.36,16.36,0,0,0-4.4-1.83,32.31,32.31,0,0,1-5-1.89c-3.38-1.7-5.06-4-5.06-6.88a6.38,6.38,0,0,1,1.36-4,8.81,8.81,0,0,1,3.89-2.75,15.56,15.56,0,0,1,5.7-1,14.07,14.07,0,0,1,5.66,1.08,8.86,8.86,0,0,1,3.87,3,7.59,7.59,0,0,1,1.37,4.45h-6.11a3.61,3.61,0,0,0-1.29-3,5.55,5.55,0,0,0-3.61-1.06,5.93,5.93,0,0,0-3.48.89,2.73,2.73,0,0,0-1.24,2.33,2.65,2.65,0,0,0,1.45,2.27,16.91,16.91,0,0,0,4.29,1.71q5.22,1.47,7.61,3.64a7,7,0,0,1,2.38,5.41,6.54,6.54,0,0,1-2.91,5.65,13.47,13.47,0,0,1-7.85,2,16.13,16.13,0,0,1-6.24-1.17,9.81,9.81,0,0,1-4.29-3.21,7.8,7.8,0,0,1-1.48-4.72h6.14q0,4.59,5.87,4.59a6,6,0,0,0,3.4-.83A2.63,2.63,0,0,0,1353.75,981.47Z"/><path class="cls-1" d="M1370.13,979v9.77H1364V961h11.58a14.05,14.05,0,0,1,5.88,1.15,8.83,8.83,0,0,1,3.9,3.24,8.61,8.61,0,0,1,1.37,4.79,7.75,7.75,0,0,1-3,6.43q-3,2.36-8.26,2.35Zm0-4.63h5.47a5.65,5.65,0,0,0,3.7-1.06,3.75,3.75,0,0,0,1.27-3,4.4,4.4,0,0,0-1.28-3.29,5,5,0,0,0-3.55-1.3h-5.61Z"/><path class="cls-1" d="M1408.8,976.72h-11.74v7.43h13.78v4.59H1391V961h19.85v4.63h-13.74v6.61h11.74Z"/><path class="cls-1" d="M1425.42,978.59h-4.87v10.15h-6.12V961h11c3.5,0,6.21.73,8.11,2.19a7.37,7.37,0,0,1,2.86,6.19,8.07,8.07,0,0,1-1.32,4.73,8.83,8.83,0,0,1-4,3l6.42,11.33v.27H1431Zm-4.87-4.63h4.93a5.31,5.31,0,0,0,3.57-1.09,3.8,3.8,0,0,0,1.26-3,4.06,4.06,0,0,0-1.19-3.09,5.19,5.19,0,0,0-3.66-1.12h-4.91Z"/><path class="cls-1" d="M1076,934c2.29-7.57,3.81-15.48,7-22.62a71.83,71.83,0,0,1,23.83-29,35.85,35.85,0,0,1,6.24-3.08c1-.46,1.83-.84.82,1.19-2.78,6.12-5.69,12.19-8.33,18.38-6,14.07-8.85,28.69-5.52,43.82,3.74,17,17.7,29.21,33,28,19.28-1.59,31.28-6.56,38.57-29.38,3.48-10.92,3.78-22.37,2.12-33.66-2.81-19-15.75-30.15-36.11-31.62-4.79-.34-10.5-1.15-16.31-1.52a96.64,96.64,0,0,1,6.43-10.19c2.94-4.37,9.18-12.25,9.18-12.25s4.64-.94,8,0c7.61,2.68,15.66,4.52,22.74,8.22,17.3,9.07,24.45,27.53,21.41,47.13-2.64,17-7.62,33.38-17.46,47.84-12,17.61-27.28,30.54-49.26,33.06a40.55,40.55,0,0,1-32.76-10.35c-6.69-5.95-9.83-13.13-12.58-21.15A30.82,30.82,0,0,1,1076,952C1075,946,1074.5,940.17,1076,934Z"/><path class="cls-1" d="M1311.89,874c3.86,13.54,7.67,26.89,11.47,40.24l1.14,0c3.29-13.25,6.58-26.51,9.94-40h13.9c-5.5,20.28-10.92,40.31-16.39,60.49H1317c-4.39-14.58-8.8-29.2-13.63-45.21L1289.65,935c-4.3,0-8.45.13-12.59-.08-1,0-2.67-1-2.9-1.83-5.28-19.4-10.41-38.83-15.69-58.72h14.15l9.73,39.39.93.18c.55-1.63,1.14-3.24,1.63-4.88,3.1-10.35,6.28-20.69,9.2-31.1.87-3.1,2.29-4.27,5.55-4C1303.62,874.24,1307.63,874,1311.89,874Z"/><path class="cls-1" d="M1423.83,913.8V874.29h12.46V935a105.34,105.34,0,0,1-11.56-.14c-1.45-.16-3.11-1.65-4-3-8.33-12-16.51-24.11-25.52-37.34v40.14h-12.89V874c3.94,0,7.88-.25,11.76.14,1.27.13,2.66,1.71,3.51,3,7.23,10.57,14.35,21.22,21.51,31.84,1.19,1.76,2.44,3.48,3.67,5.22Z"/><path class="cls-1" d="M1210.62,914c4.08,10.2,14.41,14.32,23.77,9.35,2.13-1.13,4.55-4.16,4.5-6.26s-2.88-4.8-5.07-5.55c-5.79-2-12-2.83-17.87-4.5-11-3.09-16.39-9.23-16-17.64s7.09-14.07,18.34-15.85c7.71-1.21,15.31-.84,22.41,2.62,6.7,3.25,10.06,8.85,10.44,16.59H1238c-3.87-9.35-10.67-10.39-20.54-7.4-1.69.51-4,3-3.91,4.36a7,7,0,0,0,3.84,5c5,1.81,10.25,2.74,15.37,4.15a72.66,72.66,0,0,1,10.42,3.33c6.07,2.72,9.77,7.39,10,14.28s-2.72,12.56-8.87,15.56a40.36,40.36,0,0,1-35.64.42c-6.87-3.11-10.2-9.21-11.18-17.22Z"/><path class="cls-1" d="M1369.12,874.41v60.16h-13.31V874.41Z"/></svg>