<?xml version="1.0" encoding="utf-8"?>
<!-- Generator: Adobe Illustrator 22.1.0, SVG Export Plug-In . SVG Version: 6.00 Build 0)  -->
<svg version="1.1" id="Layer_1" xmlns="http://www.w3.org/2000/svg" xmlns:xlink="http://www.w3.org/1999/xlink" x="0px" y="0px"
	 viewBox="0 0 100 100" style="enable-background:new 0 0 100 100;" xml:space="preserve">
<style type="text/css">
	.st0{fill:#808080;}
</style>
<title>logo</title>
<path class="st0" d="M17.3,57.2c1.1-4.6,2.5-9.2,4.3-13.7c3.1-7.1,8.1-13.1,14.4-17.6c1.2-0.7,2.5-1.4,3.8-1.9
	c0.6-0.3,1.1-0.5,0.5,0.7c-1.7,3.7-3.4,7.4-5,11.1c-3.9,8.3-5.1,17.5-3.3,26.5c2.3,10.3,10.7,17.6,20,16.9c11.7-1,18.9-4,23.3-17.8
	c2-6.6,2.4-13.5,1.3-20.3C74.7,29.7,66.9,23,54.6,22.1c-2.9-0.2-6.3-0.7-9.9-0.9c1.2-2.1,2.5-4,3.9-5.9c1.8-2.7,5.6-7.6,5.6-7.6
	c1.6-0.3,3.2-0.3,4.8,0c4.7,1.4,9.3,3,13.7,5c10.5,5.5,14.8,16.6,13,28.5c-1.3,10.3-4.9,20.2-10.6,28.9c-7.2,10.6-16.5,18.4-29.8,20
	c-7.2,1-14.5-1.3-19.8-6.3c-3.6-3.5-6.2-7.9-7.6-12.8c-0.3-1-0.6-2-0.7-3C16.5,64.5,16.5,60.8,17.3,57.2z"/>
</svg>
