<?xml version="1.0" encoding="utf-8"?>
<!-- Generator: Adobe Illustrator 22.1.0, SVG Export Plug-In . SVG Version: 6.00 Build 0)  -->
<svg version="1.1" id="Layer_1" xmlns="http://www.w3.org/2000/svg" xmlns:xlink="http://www.w3.org/1999/xlink" x="0px" y="0px"
	 viewBox="0 0 100 100" style="enable-background:new 0 0 100 100;" xml:space="preserve">
<style type="text/css">
	.st0{display:none;}
	.st1{fill:none;stroke:#808080;stroke-width:2;stroke-miterlimit:10;}
	.st2{fill:#808080;}
	.st3{fill:#808080;stroke:#808080;stroke-width:0.25;stroke-miterlimit:10;}
</style>
<path class="st0" d="M50,72.6c-0.5,0.1-0.8,0.2-1.1,0.2c-3.3,0-6.6,0-10.2,0c-0.1-1.9-0.1-3.7-0.4-5.5c-0.1-0.6-0.7-1.2-1.2-1.6
	c-0.3-0.2-0.8-0.2-1.1-0.4c-3.3-2.5-5.9-1.4-8.3,1.5c-0.3,0.4-0.7,0.6-0.9,0.8c-2.7-2.7-5.3-5.3-8-8.1c1-1.1,2.1-2.5,3.3-3.7
	c0.8-0.8,0.9-1.5,0.3-2.4c-0.1-0.2-0.2-0.3-0.3-0.5c-0.6-4.4-3.6-5.4-7.5-5.1c-0.3,0-0.6-0.1-1-0.2c0-3.7,0-7.3,0-11.2
	c1.7-0.1,3.3-0.3,5-0.3c1.2,0,2-0.3,2.2-1.6c0.1-0.4,0.2-0.8,0.4-1.1c2.4-3.1,1.2-5.6-1.5-7.7c-0.4-0.3-0.7-0.8-0.9-1.1
	c2.7-2.7,5.3-5.3,8.1-8c1.2,1,2.5,2.3,3.9,3.4c0.5,0.4,1.4,0.4,2,0.2c1.1-0.3,2.1-1.1,3.3-1.3c2-0.4,2.5-1.5,2.4-3.3
	c-0.1-1.4,0.2-2.7,0.3-4.2c3.8,0,7.4,0,11.3,0c0.1,1.7,0.3,3.3,0.3,5c0,1.2,0.3,2,1.6,2.2c0.4,0,0.8,0.2,1.1,0.4
	c3.1,2.4,5.6,1.2,7.7-1.5c0.3-0.4,0.8-0.7,1-0.9c2.6,2.7,5.3,5.3,8,8.1c-1,1.1-2.2,2.4-3.3,3.9c-0.4,0.5-0.4,1.4-0.2,2
	c0.3,1.2,1.2,2.3,1.4,3.5c0.4,1.8,1.4,2.3,3.1,2.2c1.4-0.1,2.9,0.1,4.4,0.2c0,3.9,0,7.5,0,11.3c-1.7,0.1-3.2,0.3-4.8,0.3
	c-1.3,0-2.3,0.2-2.5,1.8c0,0.3-0.1,0.5-0.2,0.7c-2.5,3.3-1.2,5.8,1.5,8.1c0.4,0.3,0.6,0.7,0.8,0.9c-2.7,2.7-5.3,5.3-8,8.1
	c-1.2-1-2.5-2.3-3.9-3.4c-0.5-0.4-1.4-0.4-2-0.3c-1.4,0.4-2.8,1.2-4.2,1.6c-1.1,0.3-1.4,0.9-1.4,2C50.2,69.2,50.1,70.9,50,72.6z
	 M26.9,18.6c-2.1,2.1-4,4-6,6c1.3,1.5,2.7,3.1,3.9,4.5c-1.2,2.8-2.3,5.6-3.4,8.3c-2,0.2-4.1,0.3-6.1,0.5c0,2.9,0,5.6,0,8.4
	c1.9,0.1,3.6,0.1,5.3,0.3c0.5,0.1,1.1,0.4,1.3,0.8c1,2.5,2,5,3,7.6c-1.2,1.4-2.6,3-3.8,4.4c2,2.1,3.9,4,5.9,6
	c1.5-1.3,3.1-2.7,4.5-3.9c2.6,1,5,1.9,7.3,2.9c0.5,0.2,1,0.9,1.1,1.5c0.3,1.7,0.3,3.5,0.4,5.2c2.9,0,5.6,0,8.4,0
	c0.2-2.2,0.4-4.4,0.5-6.2c3-1.2,5.6-2.4,8.3-3.5c1.5,1.3,3.1,2.7,4.4,3.8c2.1-2.1,4.1-4,6.1-5.9c-1.3-1.5-2.7-3.1-3.9-4.4
	c1-2.5,2-4.7,2.8-7c0.3-1.1,0.8-1.5,1.9-1.5c1.6-0.1,3.3-0.2,4.9-0.3c0-2.9,0-5.6,0-8.4c-2.2-0.2-4.3-0.3-6.2-0.5
	c-1.2-2.8-2.3-5.5-3.4-8.3c1.2-1.4,2.7-3,3.9-4.4c-2-2.1-4-4.1-5.9-6.1c-1.5,1.3-3.1,2.7-4.5,3.9c-2.6-1-5.1-1.9-7.5-2.9
	c-0.4-0.2-0.9-0.9-0.9-1.4c-0.2-1.7-0.3-3.4-0.4-5.1c-2.9,0-5.7,0-8.4,0c-0.1,1.9-0.2,3.6-0.4,5.3c0,0.4-0.3,1.1-0.7,1.2
	c-2.5,1-5.1,2-7.8,3C29.8,21.2,28.3,19.8,26.9,18.6z"/>
<rect x="8.7" y="14.8" class="st1" width="80.7" height="69.1"/>
<g>
	<path class="st2" d="M43.2,77.8l-2.7-1.2l14.8-34.1l2.7,1.2C53.1,55,48.2,66.4,43.2,77.8z"/>
	<path class="st2" d="M32.2,60.1l5.2,6.9l-2.3,1.8l-6.6-8.7l6.6-8.7l2.3,1.8L32.2,60.1z"/>
	<path class="st2" d="M66.3,60.1l-5.2-6.9l2.3-1.8l6.6,8.7c-2.2,2.9-4.4,5.7-6.6,8.7L61.1,67L66.3,60.1z"/>
</g>
<rect x="8.7" y="28.4" class="st3" width="80.7" height="1.8"/>
<path class="st2" d="M70.7,22.1c0,1.1-0.5,1.7-1.5,1.8c-0.9,0.1-1.7-0.4-1.8-1.3c0-0.1,0-0.1,0-0.2c-0.1-0.9,0.6-1.8,1.6-1.9
	c0.1,0,0.1,0,0.2,0C70.1,20.4,70.6,21.1,70.7,22.1z"/>
<path class="st2" d="M77.8,22.3c-0.1,0.9-1,1.6-1.9,1.5c-0.8,0-1.5-0.6-1.6-1.4c0-0.1,0-0.2,0-0.3c0-0.9,0.7-1.6,1.6-1.6
	c0.1,0,0.1,0,0.2,0C77.2,20.6,77.6,21.3,77.8,22.3z"/>
<path class="st2" d="M84.5,22.2c0,1.1-0.6,1.7-1.6,1.7c-0.9,0.1-1.6-0.6-1.7-1.4c0-0.1,0-0.2,0-0.3c0-0.9,0.7-1.7,1.6-1.7
	c0,0,0.1,0,0.1,0c0.9,0,1.6,0.6,1.6,1.5C84.6,22,84.6,22.1,84.5,22.2z"/>
</svg>
