<svg id="Layer_1" data-name="Layer 1" xmlns="http://www.w3.org/2000/svg" viewBox="0 0 100 100"><defs><style>.cls-1{fill:gray;}</style></defs><title>css</title><path class="cls-1" d="M64.33,33.74c5.23,0,8,2.62,8.2,7.22.06,1.27,0,2.56,0,3.83-.09,2.45-.24,4.82,3.17,5.22.93.1,1.31,1.18,1.3,2.1a2,2,0,0,1-1.75,2.09c-2.56.29-2.84,1.92-2.73,4,.09,1.57.06,3.15,0,4.72a7.6,7.6,0,0,1-9.45,7.48c-1.33-.28-2.2-1-2.14-2.4s1-2,2.31-2.25c4.62-.76,4.59-.77,4.63-5.63,0-2.43-.41-4.93,1-7.19A1.64,1.64,0,0,0,69,51.53C67.18,48.4,68,45,67.9,41.69c-.06-2.15-.81-3.37-3.11-3.32-1.89,0-3.91-.23-3.76-2.61S63.24,33.68,64.33,33.74Z"/><path class="cls-1" d="M34.18,33.74c1.52.08,3.43-.39,3.58,2s-1.71,2.66-3.42,2.63c-2.53-.06-3.18,1.24-3.2,3.49,0,3.21.57,6.51-1.1,9.54a1.09,1.09,0,0,0-.12.85c1.9,3.49,1.07,7.3,1.27,11a2.41,2.41,0,0,0,2.65,2.51,12.63,12.63,0,0,1,2,.1A2.27,2.27,0,0,1,38,68c0,1.39-.87,2.1-2.16,2.39a7.55,7.55,0,0,1-9.31-7.3c-.06-1.76-.06-3.54,0-5.31s-.43-3-2.38-3.45A2.28,2.28,0,0,1,22,51.87a2.2,2.2,0,0,1,2.08-2.13c2-.25,2.45-1.62,2.4-3.39s0-3.34,0-5C26.55,36.4,29.26,33.73,34.18,33.74Z"/><path class="cls-1" d="M42.47,61c0,1.44-.62,2.28-2,2.33a2.09,2.09,0,0,1-2.43-2,2.29,2.29,0,0,1,2.29-2.5C41.62,58.8,42.33,59.76,42.47,61Z"/><path class="cls-1" d="M51.8,61.34a2.36,2.36,0,0,1-2.51,2A2,2,0,0,1,47.22,61a2.13,2.13,0,0,1,2.39-2.1C51,59,51.61,60,51.8,61.34Z"/><path class="cls-1" d="M60.81,61.1c0,1.49-.73,2.25-2.18,2.26a2.06,2.06,0,0,1-2.23-2.21,2.18,2.18,0,0,1,2.25-2.27A2.06,2.06,0,0,1,60.81,61.1Z"/></svg>