<svg id="Layer_1" data-name="Layer 1" xmlns="http://www.w3.org/2000/svg" viewBox="0 0 90.5 90.49"><defs><style>.cls-1{fill:#fff;}</style></defs><title>facebook-cv2</title><path class="cls-1" d="M49.84,96A45.25,45.25,0,1,1,95.15,51.68,45.15,45.15,0,0,1,49.84,96ZM55,84.61V50.7H56.3q3.63,0,7.24,0c.53,0,.89,0,1-.71.25-2.33.59-4.64.85-7,.14-1.21.19-2.43.29-3.78H55c0-2.49,0-4.86,0-7.23a3.16,3.16,0,0,1,3.3-3.3c1.46,0,2.93,0,4.39,0h2.89V16.77c-4.69.12-9.32-.08-13.88.43-6.22.71-9.8,4.34-10.6,10.21A51.48,51.48,0,0,0,41,33.87c0,1.79,0,3.57,0,5.49H34.18V50.73H41V84.61Z" transform="translate(-4.65 -5.51)"/></svg>