<svg id="Layer_1" data-name="Layer 1" xmlns="http://www.w3.org/2000/svg" viewBox="0 0 100 100"><defs><style>.cls-1{fill:gray;}</style></defs><title>facebook</title><path class="cls-1" d="M63,25.21c0,.17,0,.33,0,.5,0,2.66,0,5.33,0,8,0,.37-.11.47-.47.46-1.45,0-2.9,0-4.35,0a8.31,8.31,0,0,0-1.48.18,2,2,0,0,0-1.62,1.94C55,38.18,55,40.05,55,41.93c0,.34.22.29.42.29H63l-.94,8.93H55v.56q0,12.45,0,24.91c0,.16,0,.33,0,.49h-9.7V74.79q0-11.48,0-23v-.66H38.79c0-.19,0-.32,0-.45q0-4,0-8c0-.37.11-.46.47-.46,1.85,0,3.7,0,5.55,0,.4,0,.48-.13.48-.5,0-2.4,0-4.81.09-7.21a11.78,11.78,0,0,1,1.24-5A6.78,6.78,0,0,1,50.7,26a29.72,29.72,0,0,1,3.14-.69l.44-.1Z"/></svg>