<svg id="Layer_1" data-name="Layer 1" xmlns="http://www.w3.org/2000/svg" viewBox="0 0 100 100"><defs><style>.cls-1{fill:gray;}</style></defs><title>github</title><path class="cls-1" d="M70.68,40.32a20.45,20.45,0,0,0-7.48-7.47,20.66,20.66,0,0,0-20.63,0,20.43,20.43,0,0,0-7.47,7.47,20.62,20.62,0,0,0,1.16,22.4,20.06,20.06,0,0,0,10.13,7.42A1.21,1.21,0,0,0,47.46,70a1.07,1.07,0,0,0,.35-.81c0-.05,0-.53,0-1.44s0-1.7,0-2.38l-.62.11a7.85,7.85,0,0,1-1.48.09,11.07,11.07,0,0,1-1.86-.19,4.07,4.07,0,0,1-1.79-.8,3.35,3.35,0,0,1-1.18-1.65l-.27-.61a7,7,0,0,0-.84-1.37,3.22,3.22,0,0,0-1.17-1l-.18-.14a1.75,1.75,0,0,1-.35-.32,1.29,1.29,0,0,1-.24-.37c-.06-.13,0-.23.13-.31a1.77,1.77,0,0,1,.78-.12l.53.08a4,4,0,0,1,1.33.64,4.44,4.44,0,0,1,1.3,1.39,4.8,4.8,0,0,0,1.48,1.68A3.16,3.16,0,0,0,45.1,63a7.59,7.59,0,0,0,1.53-.13,5.64,5.64,0,0,0,1.2-.4,4.34,4.34,0,0,1,1.31-2.76,19.37,19.37,0,0,1-2.74-.48,10.76,10.76,0,0,1-2.51-1,7.18,7.18,0,0,1-2.16-1.79,8.48,8.48,0,0,1-1.4-2.81,13.22,13.22,0,0,1-.55-4,7.78,7.78,0,0,1,2.11-5.51,7.18,7.18,0,0,1,.19-5.46,3.76,3.76,0,0,1,2.3.36,15,15,0,0,1,2.23,1c.48.28.86.53,1.14.72a19.49,19.49,0,0,1,10.28,0l1-.64a14.86,14.86,0,0,1,2.46-1.18,3.56,3.56,0,0,1,2.17-.29,7.1,7.1,0,0,1,.22,5.46A7.78,7.78,0,0,1,66,49.57a13.41,13.41,0,0,1-.55,4A8.16,8.16,0,0,1,64,56.4a7.41,7.41,0,0,1-2.16,1.78,11,11,0,0,1-2.52,1,19.12,19.12,0,0,1-2.74.48A4.75,4.75,0,0,1,58,63.51v5.64a1.1,1.1,0,0,0,.33.81,1.19,1.19,0,0,0,1.06.18,20.54,20.54,0,0,0,14-19.5A20.1,20.1,0,0,0,70.68,40.32Z"/></svg>