<?xml version="1.0" encoding="utf-8"?>
<!-- Generator: Adobe Illustrator 22.1.0, SVG Export Plug-In . SVG Version: 6.00 Build 0)  -->
<svg version="1.1" id="Layer_1" xmlns="http://www.w3.org/2000/svg" xmlns:xlink="http://www.w3.org/1999/xlink" x="0px" y="0px"
	 viewBox="0 0 100 100" style="enable-background:new 0 0 100 100;" xml:space="preserve">
<style type="text/css">
	.st0{display:none;fill:#FFFFFF;}
	.st1{fill:#FFFFFF;}
	.st2{fill:#808080;}
</style>
<path class="st0" d="M58.9,70.2c2.4-0.6,4.7-0.9,6.9-1.6c6.7-2,11-6.4,12.4-13.4c1.1-5,1.3-10-1.1-14.8c-0.6-1.2-1.5-2.2-2.1-3.3
	c-0.2-0.4-0.4-1-0.3-1.4c0.9-3.3,0.7-6.6-0.4-9.9c-0.3-0.9-0.7-1.2-1.6-1.1c-3.4,0.2-6.3,1.7-9,3.4c-1.4,0.9-2.7,1-4.3,0.7
	c-6.3-1.4-12.6-1.2-19,0.2c-0.6,0.1-1.3,0-1.8-0.3c-2.7-1.6-5.5-3.2-8.6-3.8c-2.6-0.5-2.9-0.3-3.5,2.2c-0.7,2.7-0.9,5.5,0,8.2
	c0.3,0.9,0.1,1.5-0.5,2.1c-6.4,7.2-4.1,22.3,2.5,27.5c3.7,3,8,4.3,12.6,4.9c0.3,0,0.5,0.1,0.8,0.1c0.1,0,0.1,0.1,0,0
	c-0.7,1.9-1.4,3.8-2.2,5.7c-0.1,0.3-0.6,0.5-0.9,0.6c-4.9,1.9-9.1,0.5-11.9-3.9c-1.4-2.2-3.2-3.9-5.9-4.5c-1-0.2-2.3-0.5-2.8,0.6
	c-0.2,0.3,0.9,1.5,1.7,2c2.1,1.5,3.5,3.4,4.5,5.7c1.7,4.2,5,6.1,9.3,6.3c1.9,0.1,3.8,0,5.9,0c0,2.5,0.1,5.4,0,8.2
	c-0.1,1.4-1.7,2.1-3.3,1.4c-3.2-1.4-6.7-2.7-9.6-4.7C11.1,77.1,3.9,62.3,6.8,43.8c3-18.6,14.3-30.8,32.5-35.7
	c25-6.8,50.4,9.5,55,34.9c3.8,21.1-8.6,42.1-28.8,49.1c-2.8,1-3.9,0.1-3.9-2.8c0-2.8,0-5.6,0.1-8.4C61.7,77,61.7,73.3,58.9,70.2z"/>
<path class="st0" d="M49.8,96c-25,0-45.2-20.2-45.2-45.3C4.6,25.4,25.5,5,50.8,5.5C75.4,6,95.6,26.4,95.2,51.7
	C94.7,76.2,74.5,96.2,49.8,96z M55,84.6c0-11.3,0-22.6,0-33.9c0.5,0,0.9,0,1.3,0c2.4,0,4.8,0,7.2,0c0.5,0,0.9,0,1-0.7
	c0.3-2.3,0.6-4.6,0.9-7c0.1-1.2,0.2-2.4,0.3-3.8c-3.6,0-7.1,0-10.6,0c0-2.5,0-4.9,0-7.2c0-1.9,1.3-3.3,3.3-3.3c1.5,0,2.9,0,4.4,0
	c1,0,1.9,0,2.9,0c0-4,0-7.9,0-11.9c-4.7,0.1-9.3-0.1-13.9,0.4c-6.2,0.7-9.8,4.3-10.6,10.2c-0.3,2.1-0.1,4.3-0.2,6.5
	c0,1.8,0,3.6,0,5.5c-2.3,0-4.5,0-6.8,0c0,3.8,0,7.5,0,11.4c2.3,0,4.5,0,6.8,0c0,11.4,0,22.6,0,33.9C45.7,84.6,50.2,84.6,55,84.6z"/>
<circle class="st1" cx="49.5" cy="49.5" r="46.5"/>
<g>
	<polygon class="st2" points="82.6,42.4 74.4,42.4 74.4,34.2 70.3,34.2 70.3,42.4 62.1,42.4 62.1,46.5 70.3,46.5 70.3,54.7 
		74.4,54.7 74.4,46.5 82.6,46.5 	"/>
	<path class="st2" d="M37.5,50.6h11.6c-1.7,4.8-6.3,8.2-11.6,8.2c-6.8,0-12.3-5.5-12.3-12.3s5.5-12.3,12.3-12.3c2.9,0,5.8,1.1,8,3
		l5.4-6.2c-3.7-3.2-8.4-5-13.4-5C26.2,26,17,35.2,17,46.5S26.2,67,37.5,67S58,57.8,58,46.5v-4.1H37.5V50.6z"/>
</g>
</svg>
