<svg id="Layer_1" data-name="Layer 1" xmlns="http://www.w3.org/2000/svg" viewBox="0 0 100 100"><defs><style>.cls-1{fill:gray;}</style></defs><title>google-plus</title><path class="cls-1" d="M48.4,41.36l-.57.55-2.49,2.44c-.11.11-.17.1-.29,0a8.76,8.76,0,0,0-4.2-1.93,8.65,8.65,0,0,0-4.34.37,8.51,8.51,0,0,0-3.07,1.83,8.66,8.66,0,0,0-2.71,4.76,8.81,8.81,0,0,0,2.39,8,8.52,8.52,0,0,0,4.48,2.44A8.88,8.88,0,0,0,48.06,53a.06.06,0,0,0,0,0c0-.09,0-.18,0-.3H39.73c-.35,0-.35,0-.35-.34,0-1.29,0-2.58,0-3.88,0-.21.06-.27.27-.27H52.14c.19,0,.28.06.31.24.08.79.21,1.58.26,2.37A12.31,12.31,0,0,1,52,55.67a12.87,12.87,0,0,1-2.47,4.21,13.28,13.28,0,0,1-10.81,4.59A13.32,13.32,0,0,1,27.38,56.9a11.9,11.9,0,0,1-1.17-4,17,17,0,0,1-.11-2.25,12.83,12.83,0,0,1,2.28-7A13.33,13.33,0,0,1,45.5,39.31a12.78,12.78,0,0,1,2.83,2Z"/><path class="cls-1" d="M64.57,55.6H61.79c-.18,0-.23,0-.23-.23,0-1.31,0-2.62,0-3.92v-.29H57.15a2.06,2.06,0,0,1,0-.21c0-.86,0-1.71,0-2.56,0-.18.07-.23.25-.23h4.19V47.9c0-1.29,0-2.58,0-3.88,0-.23.07-.28.29-.28h2.44c.23,0,.28.07.27.29,0,1.29,0,2.58,0,3.88v.27h4.17c.2,0,.27,0,.27.25,0,.84,0,1.67,0,2.51a1.93,1.93,0,0,1,0,.23H64.57Z"/></svg>