<svg id="Layer_1" data-name="Layer 1" xmlns="http://www.w3.org/2000/svg" viewBox="0 0 93 93"><defs><style>.cls-1{fill:#fff;}.cls-2{fill:gray;}</style></defs><title>google-cv</title><circle class="cls-1" cx="46.5" cy="46.5" r="46.5"/><polygon class="cls-2" points="79.6 39.4 71.4 39.4 71.4 31.2 67.3 31.2 67.3 39.4 59.1 39.4 59.1 43.5 67.3 43.5 67.3 51.7 71.4 51.7 71.4 43.5 79.6 43.5 79.6 39.4"/><path class="cls-2" d="M37.5,50.6H49.1A12.3,12.3,0,1,1,37.5,34.2a12.11,12.11,0,0,1,8,3L50.85,31A20.29,20.29,0,0,0,37.5,26,20.5,20.5,0,1,0,58,46.5V42.4H37.5Z" transform="translate(-3 -3)"/></svg>