<?xml version="1.0" encoding="utf-8"?>
<!-- Generator: Adobe Illustrator 22.1.0, SVG Export Plug-In . SVG Version: 6.00 Build 0)  -->
<svg version="1.1" id="Layer_1" xmlns="http://www.w3.org/2000/svg" xmlns:xlink="http://www.w3.org/1999/xlink" x="0px" y="0px"
	 viewBox="0 0 100 100" style="enable-background:new 0 0 100 100;" xml:space="preserve">
<style type="text/css">
	.st0{fill:#808080;}
	.st1{enable-background:new    ;}
	.st2{fill:#808080;stroke:#808080;stroke-width:0.75;stroke-miterlimit:10;}
	.st3{fill:#FFFFFF;stroke:#000000;stroke-miterlimit:10;}
</style>
<path class="st0" d="M73.2,20.3c0.8,0,1.6,0.2,2.1,0.8c0.5,0.6,0.7,1.4,0.4,2.1c-0.3,0.8-0.9,1.3-1.8,1.5c-0.4,0.1-0.7,0.1-1.2,0.1
	c-4.5,0-9,0-13.5,0c-3.9,0-7.7,0-11.5,0c-0.7,0-1.4-0.1-2-0.6c-1.3-1-1-2.8,0.4-3.6c0.4-0.2,1-0.3,1.5-0.3"/>
<path class="st0" d="M73.2,37.7c0.9,0,1.7,0.3,2.3,0.9c0.7,0.8,0.6,2.2-0.4,3c-0.5,0.4-1.2,0.5-1.8,0.5c-4.4,0-8.7,0-12.9,0
	s-8.5,0-12.7,0c-0.7,0-1.4-0.2-1.9-0.6c-1.2-1-0.9-2.7,0.4-3.5c0.4-0.2,1-0.4,1.6-0.4"/>
<path class="st0" d="M28.7,55.7c2.4,0,4.8,0,7.1,0c0.5,0,0.9,0.3,1.2,1c0.4,0.9,0.3,2.3-0.3,3c-0.3,0.3-0.6,0.4-0.9,0.4
	c-1.7,0-3.3,0-5,0c-2.1,0-4.3,0-6.4,0c-0.9,0-1.9,0-2.8,0c-0.3,0-0.6-0.1-0.9-0.4c-0.4-0.3-0.6-0.9-0.6-1.9c0-0.8,0.2-1.5,0.6-1.9
	c0.2-0.2,0.5-0.3,0.8-0.3c1.9,0,3.8,0,5.6,0C27.7,55.8,28.2,55.8,28.7,55.7C28.7,55.8,28.7,55.8,28.7,55.7z"/>
<path class="st0" d="M26.7,26.5c1.2-1,2.3-2.1,3.4-3.1c2-2,4-4.1,6.1-6.2c0.8-0.8,1.9-0.7,2.7,0c0.7,0.7,0.6,1.9-0.1,2.6
	c-3.5,3.6-6.9,7.1-10.5,10.7c-0.9,0.9-2.1,0.9-3-0.1c-1.5-1.7-3-3.2-4.6-4.8c-0.5-0.5-0.7-1.3-0.5-2c0.4-1.3,2-1.8,3-0.8
	c1,0.9,2,2,2.9,3C26.3,26.1,26.6,26.3,26.7,26.5z"/>
<path class="st0" d="M26.8,44.2c1.9-1.9,3.8-3.9,5.6-5.8c1.3-1.3,2.5-2.5,3.7-3.8c0.7-0.8,1.9-0.7,2.6,0s0.7,1.9,0,2.6
	c-2.2,2.3-4.5,4.6-6.7,6.9c-1.3,1.3-2.5,2.6-3.8,3.9c-0.8,0.9-2,0.9-2.9,0c-1.6-1.7-3.1-3.2-4.6-4.9c-1-1.2-0.7-2.6,0.5-3.2
	c0.7-0.3,1.6-0.1,2.2,0.6c0.5,0.6,1.2,1.2,1.7,1.8C25.7,42.9,26.3,43.6,26.8,44.2z"/>
<g class="st1">
	<path class="st2" d="M21.4,75.2l1.4-0.2c0,0.9,0.2,1.5,0.5,1.8c0.3,0.3,0.7,0.5,1.2,0.5c0.4,0,0.7-0.1,1-0.3
		c0.3-0.2,0.5-0.4,0.6-0.7c0.1-0.3,0.2-0.8,0.2-1.5v-8h1.5v7.9c0,1-0.1,1.7-0.4,2.3c-0.2,0.5-0.6,0.9-1.1,1.2s-1.1,0.4-1.8,0.4
		c-1,0-1.8-0.3-2.4-0.9C21.7,77.3,21.4,76.4,21.4,75.2z"/>
	<path class="st2" d="M29.8,74.8l1.5-0.1c0.1,0.6,0.2,1.1,0.5,1.4c0.3,0.4,0.6,0.7,1.2,0.9c0.5,0.2,1.1,0.3,1.8,0.3
		c0.6,0,1.1-0.1,1.6-0.3c0.5-0.2,0.8-0.4,1-0.7c0.2-0.3,0.3-0.6,0.3-1c0-0.4-0.1-0.7-0.3-1c-0.2-0.3-0.6-0.5-1.1-0.7
		c-0.3-0.1-1-0.3-2.1-0.6c-1.1-0.3-1.8-0.5-2.3-0.7c-0.6-0.3-1-0.7-1.2-1.1c-0.3-0.4-0.4-0.9-0.4-1.5c0-0.6,0.2-1.1,0.5-1.7
		c0.3-0.5,0.8-0.9,1.5-1.2c0.6-0.3,1.4-0.4,2.1-0.4c0.9,0,1.6,0.1,2.3,0.4c0.7,0.3,1.2,0.7,1.5,1.2c0.4,0.5,0.5,1.2,0.6,1.8
		l-1.5,0.1c-0.1-0.7-0.3-1.3-0.8-1.7c-0.5-0.4-1.1-0.6-2-0.6c-0.9,0-1.6,0.2-2,0.5s-0.6,0.8-0.6,1.2c0,0.4,0.2,0.8,0.5,1
		c0.3,0.3,1.1,0.5,2.3,0.8c1.3,0.3,2.1,0.5,2.6,0.7c0.7,0.3,1.2,0.7,1.5,1.2c0.3,0.5,0.5,1,0.5,1.7c0,0.6-0.2,1.2-0.5,1.8
		s-0.9,1-1.5,1.3s-1.4,0.5-2.2,0.5c-1.1,0-1.9-0.2-2.7-0.5c-0.7-0.3-1.3-0.8-1.7-1.4C30.1,76.3,29.8,75.6,29.8,74.8z"/>
</g>
<path class="st0" d="M78.2,78.7c-4.6-3.7-9.3-7.4-14-11.1c-2.8,2.3-6,3.2-9.6,2.6c-2.8-0.5-5.1-1.8-6.9-3.9
	C44,61.9,44,55.6,47.8,51.2c3.6-4.2,9.9-5.2,14.7-2.4c4.9,2.9,7.5,9.4,4.5,15.3c4.7,3.7,9.4,7.4,14,11.1
	C80,76.4,79.1,77.6,78.2,78.7z M57.5,67c4.6-0.5,7.8-4.6,7.2-9.2c-0.5-4.5-4.7-7.7-9.1-7.2c-4.5,0.6-7.8,4.7-7.2,9.2
	C49,64.3,53,67.5,57.5,67z"/>
<g class="st1">
	<path class="st0" d="M52.7,63.9l3.1-4.7L53,54.9h2.1l1.8,2.9l1.8-2.9h2.1L58,59.3l3.1,4.6h-2.2l-2-3.1l-2,3.1H52.7z"/>
</g>
<path class="st3" d="M28.7,73"/>
</svg>
