<?xml version="1.0" encoding="utf-8"?>
<!-- Generator: Adobe Illustrator 22.1.0, SVG Export Plug-In . SVG Version: 6.00 Build 0)  -->
<svg version="1.1" id="Layer_1" xmlns="http://www.w3.org/2000/svg" xmlns:xlink="http://www.w3.org/1999/xlink" x="0px" y="0px"
	 viewBox="0 0 100 100" style="enable-background:new 0 0 100 100;" xml:space="preserve">
<style type="text/css">
	.st0{display:none;fill:#808080;}
	.st1{fill:#808080;}
</style>
<title>facebook</title>
<g>
	<path class="st0" d="M78,48.6c0,7.1,0,14.2,0,21.4c0,4.7-2.8,7.5-7.5,7.5c-14.3,0-28.6,0-42.9,0c-4.6,0-7.6-2.9-7.6-7.5
		c0-14.3,0-28.6,0-42.9c0-4.6,3-7.5,7.6-7.5c14.3,0,28.6,0,42.9,0c4.6,0,7.5,2.9,7.5,7.6C78,34.2,78,41.4,78,48.6z M68.1,67.7
		c0-6.2,0.2-12.2-0.1-18.2c-0.1-3.7-2.1-6.6-5.8-7.7c-3.9-1.2-7.4-0.5-10.3,2.6c-0.2,0.2-0.4,0.5-0.9,1c0-1.3,0-2.3,0-3.3
		c-2.6,0-5,0-7.5,0c0,8.5,0,17,0,25.5c2.5,0,5,0,7.4,0c0-0.2,0.1-0.3,0.1-0.4c0-4.2,0-8.4,0-12.7c0-0.9,0.1-1.8,0.3-2.6
		c0.6-2.3,2.4-3.6,4.8-3.5c2.3,0.1,3.6,1.5,4,4c0.1,0.8,0.2,1.6,0.2,2.4c0,3.8,0,7.5,0,11.3c0,0.5,0,1,0,1.6
		C63.1,67.7,65.6,67.7,68.1,67.7z M38.4,42.2c-2.6,0-5.2,0-7.8,0c0,8.5,0,17,0,25.6c2.2,0,4.2-0.1,6.3,0c1.2,0.1,1.6-0.2,1.6-1.5
		c-0.1-7.5,0-15.1,0-22.6C38.5,43.2,38.4,42.7,38.4,42.2z M39.1,34c0-2.6-2-4.7-4.6-4.7c-2.7,0-4.7,2-4.7,4.7c0,2.6,2,4.7,4.6,4.7
		C37,38.7,39.1,36.6,39.1,34z"/>
	<path class="st1" d="M69.7,62.9c-2.5,0-5,0-7.7,0c0-0.6,0-1.1,0-1.6c0-3.8,0-7.5,0-11.3c0-0.8-0.1-1.6-0.2-2.4
		c-0.3-2.5-1.7-3.9-4-4c-2.4-0.1-4.2,1.1-4.8,3.5c-0.2,0.9-0.3,1.8-0.3,2.6c0,4.2,0,8.4,0,12.7c0,0.1,0,0.2-0.1,0.4
		c-2.4,0-4.9,0-7.4,0c0-8.5,0-16.9,0-25.5c2.5,0,4.9,0,7.5,0c0,1,0,1.9,0,3.3c0.5-0.5,0.7-0.8,0.9-1c2.8-3.1,6.4-3.8,10.3-2.6
		c3.7,1.1,5.6,4,5.8,7.7C69.9,50.7,69.7,56.7,69.7,62.9z"/>
	<path class="st1" d="M40,37.5c0,0.5,0.1,1,0.1,1.4c0,7.5,0,15.1,0,22.6c0,1.3-0.4,1.6-1.6,1.5c-2-0.1-4.1,0-6.3,0
		c0-8.6,0-17,0-25.6C34.8,37.5,37.3,37.5,40,37.5z"/>
	<path class="st1" d="M40.7,29.2c0,2.7-2.1,4.7-4.8,4.7c-2.6,0-4.6-2.1-4.6-4.7c0-2.7,2.1-4.7,4.7-4.7
		C38.7,24.6,40.7,26.6,40.7,29.2z"/>
</g>
</svg>
