<svg id="Layer_2" data-name="Layer 2" xmlns="http://www.w3.org/2000/svg" viewBox="0 0 90.37 90.37"><defs><style>.cls-1{fill:#fff;}</style></defs><title>linkedin-cv</title><path class="cls-1" d="M46.46,1.3A45.18,45.18,0,1,1,1.3,46.49,45.17,45.17,0,0,1,46.46,1.3ZM71.77,67.73c0-.3.07-.55.07-.81,0-5.65,0-11.3,0-17a22.34,22.34,0,0,0-.69-5.34c-1.16-4.36-3.91-7.26-8.44-8.1s-8.62.22-11.45,4.27a5.18,5.18,0,0,1-.38.42V37.1H40.67V67.71H50.85V66.57c0-5.42,0-10.84,0-16.26a5.86,5.86,0,0,1,1.61-4.21,5.29,5.29,0,0,1,5.48-1.55,4.49,4.49,0,0,1,3.33,3.77,16.24,16.24,0,0,1,.35,3.41c0,5,0,9.92,0,14.88,0,.38,0,.75,0,1.12ZM34.9,37.1H24.8V67.72H34.9Zm-5.08-4.32c2.83,0,5-1.49,5.62-3.85a5.25,5.25,0,0,0-3.52-6.47c-3.23-1-6.54.44-7.5,3.26C23.17,29.38,25.77,32.78,29.82,32.78Z" transform="translate(-1.3 -1.3)"/></svg>