<svg id="Layer_1" data-name="Layer 1" xmlns="http://www.w3.org/2000/svg" viewBox="0 0 100 100"><defs><style>.cls-1{fill:gray;}</style></defs><title>logo</title><path class="cls-1" d="M59.59,63.75h3.12v1.11H58.12V58.19h1.47Z"/><path class="cls-1" d="M69.1,61.68a3.76,3.76,0,0,1-.37,1.72,2.71,2.71,0,0,1-1.07,1.15,3.18,3.18,0,0,1-1.59.4,3.07,3.07,0,0,1-1.58-.4,2.77,2.77,0,0,1-1.08-1.14,3.7,3.7,0,0,1-.38-1.7v-.33a3.7,3.7,0,0,1,.38-1.73,2.71,2.71,0,0,1,1.07-1.15,3.34,3.34,0,0,1,3.17,0,2.71,2.71,0,0,1,1.07,1.15,3.83,3.83,0,0,1,.38,1.73Zm-1.49-.31a2.67,2.67,0,0,0-.4-1.59,1.48,1.48,0,0,0-2.29,0,2.56,2.56,0,0,0-.4,1.57v.33a2.68,2.68,0,0,0,.4,1.58,1.3,1.3,0,0,0,1.15.56,1.33,1.33,0,0,0,1.14-.54,2.69,2.69,0,0,0,.4-1.58Z"/><path class="cls-1" d="M73.87,63.11a.69.69,0,0,0-.3-.6,4.07,4.07,0,0,0-1.06-.44,7.5,7.5,0,0,1-1.21-.45A1.85,1.85,0,0,1,70.09,60a1.59,1.59,0,0,1,.32-1,2.15,2.15,0,0,1,.94-.66,3.72,3.72,0,0,1,1.37-.24,3.44,3.44,0,0,1,1.36.26,2.14,2.14,0,0,1,.93.73,1.83,1.83,0,0,1,.33,1.07H73.87a.86.86,0,0,0-.31-.71,1.31,1.31,0,0,0-.87-.25,1.44,1.44,0,0,0-.83.21.66.66,0,0,0-.3.56.63.63,0,0,0,.35.54,4,4,0,0,0,1,.42,4.52,4.52,0,0,1,1.83.87,1.69,1.69,0,0,1,.57,1.3,1.56,1.56,0,0,1-.7,1.36,3.31,3.31,0,0,1-1.89.49,4.08,4.08,0,0,1-1.5-.28,2.43,2.43,0,0,1-1-.77,2,2,0,0,1-.35-1.14h1.47c0,.74.47,1.1,1.41,1.1a1.38,1.38,0,0,0,.82-.2A.62.62,0,0,0,73.87,63.11Z"/><path class="cls-1" d="M77.8,62.51v2.35H76.33V58.19h2.79a3.48,3.48,0,0,1,1.41.28,2.08,2.08,0,0,1,.94.78,2.06,2.06,0,0,1,.32,1.15,1.84,1.84,0,0,1-.71,1.54,3.12,3.12,0,0,1-2,.57Zm0-1.11h1.32a1.34,1.34,0,0,0,.88-.26.88.88,0,0,0,.31-.73,1,1,0,0,0-.31-.79,1.16,1.16,0,0,0-.85-.31H77.8Z"/><path class="cls-1" d="M87.09,62H84.27v1.78h3.31v1.11H82.8V58.19h4.77v1.12h-3.3v1.58h2.82Z"/><path class="cls-1" d="M91.09,62.42H89.92v2.44H88.45V58.19H91.1a3.11,3.11,0,0,1,1.94.53,1.77,1.77,0,0,1,.69,1.49,1.86,1.86,0,0,1-.32,1.13,2.11,2.11,0,0,1-1,.73L94,64.79v.07H92.42Zm-1.17-1.11H91.1A1.25,1.25,0,0,0,92,61a.89.89,0,0,0,.3-.72.93.93,0,0,0-.29-.74,1.23,1.23,0,0,0-.87-.27H89.92Z"/><path class="cls-1" d="M7.13,51.7a44.45,44.45,0,0,1,1.69-5.43,17.17,17.17,0,0,1,5.73-7,8.37,8.37,0,0,1,1.5-.74c.25-.11.44-.21.2.28-.67,1.47-1.37,2.93-2,4.42a17.07,17.07,0,0,0-1.32,10.53c.9,4.08,4.25,7,7.93,6.71,4.64-.38,7.52-1.57,9.27-7.06a17.81,17.81,0,0,0,.51-8.08c-.67-4.58-3.78-7.25-8.68-7.6-1.15-.08-2.52-.28-3.92-.37A24.34,24.34,0,0,1,19.58,35c.71-1.06,2.21-3,2.21-3a5.08,5.08,0,0,1,1.92,0,41.7,41.7,0,0,1,5.46,2c4.16,2.18,5.88,6.61,5.15,11.32a27.67,27.67,0,0,1-4.2,11.5c-2.88,4.23-6.55,7.33-11.84,7.94a9.72,9.72,0,0,1-7.87-2.49,11.15,11.15,0,0,1-3-5.08A7.34,7.34,0,0,1,7.13,56,10.53,10.53,0,0,1,7.13,51.7Z"/><path class="cls-1" d="M63.81,37.29,66.57,47h.27c.79-3.19,1.58-6.37,2.39-9.61h3.34c-1.32,4.87-2.63,9.68-3.94,14.53H65.05L61.77,41,58.46,51.94c-1,0-2,0-3,0a.92.92,0,0,1-.7-.44c-1.27-4.66-2.5-9.33-3.77-14.11h3.4l2.34,9.47.23,0c.13-.39.27-.78.39-1.17.74-2.49,1.51-5,2.21-7.47.21-.75.55-1,1.33-1C61.82,37.34,62.78,37.29,63.81,37.29Z"/><path class="cls-1" d="M90.7,46.85V37.36h3V51.94a25.61,25.61,0,0,1-2.78,0,1.66,1.66,0,0,1-1-.72c-2-2.88-4-5.79-6.13-9v9.64h-3.1V37.29a26.65,26.65,0,0,1,2.83,0c.3,0,.64.41.84.71,1.74,2.54,3.45,5.09,5.17,7.65l.88,1.25Z"/><path class="cls-1" d="M39.48,46.89a4,4,0,0,0,5.71,2.25,2.15,2.15,0,0,0,1.08-1.5c0-.47-.69-1.16-1.22-1.34-1.39-.47-2.87-.68-4.29-1.08C38.12,44.48,36.82,43,36.92,41s1.71-3.38,4.41-3.8a8.83,8.83,0,0,1,5.39.62,4.33,4.33,0,0,1,2.5,4H46.06c-.93-2.25-2.56-2.5-4.93-1.78-.41.13-1,.71-.94,1.05a1.66,1.66,0,0,0,.92,1.19c1.2.44,2.47.66,3.7,1a16.54,16.54,0,0,1,2.5.8,4,4,0,0,1,.28,7.17,9.68,9.68,0,0,1-8.56.1,4.77,4.77,0,0,1-2.69-4.14Z"/><path class="cls-1" d="M77.56,37.39V51.84h-3.2V37.39Z"/></svg>