<svg id="Layer_1" data-name="Layer 1" xmlns="http://www.w3.org/2000/svg" viewBox="0 0 100 100"><defs><style>.cls-1{fill:gray;}</style></defs><title>react</title><path class="cls-1" d="M66.53,33.22a28.55,28.55,0,0,1-.71,6.08c-.08.42-.09.41.32.54A26.49,26.49,0,0,1,73,43a10.89,10.89,0,0,1,2.83,2.67,5,5,0,0,1,1,2.92A4.64,4.64,0,0,1,76.23,51a9.67,9.67,0,0,1-2.86,3,23.46,23.46,0,0,1-5.93,3c-.47.17-1,.34-1.44.48-.17.06-.19.14-.16.29.17.72.31,1.45.42,2.18.15.92.25,1.84.31,2.78a18.92,18.92,0,0,1,0,2.13,11.22,11.22,0,0,1-1.09,4.73A4.58,4.58,0,0,1,62.61,72a6.13,6.13,0,0,1-3,0,14.47,14.47,0,0,1-4.54-1.93,28.91,28.91,0,0,1-4.53-3.49c-.15-.13-.23-.13-.38,0a27.9,27.9,0,0,1-5.27,4,12.91,12.91,0,0,1-4.07,1.56,5.55,5.55,0,0,1-3.32-.29,4.61,4.61,0,0,1-2.1-1.95,8.72,8.72,0,0,1-1.08-3.21A17.44,17.44,0,0,1,34.2,63a29.71,29.71,0,0,1,.73-5.21c0-.19,0-.25-.18-.31a27.13,27.13,0,0,1-7-3.22,10.56,10.56,0,0,1-3-2.91,4.76,4.76,0,0,1-.87-2.86,5.15,5.15,0,0,1,1-2.8,12.17,12.17,0,0,1,3.71-3.21,28.82,28.82,0,0,1,6.05-2.64c.34-.11.31-.06.24-.4a31.84,31.84,0,0,1-.7-4.78,16.64,16.64,0,0,1,.38-5.17,6.55,6.55,0,0,1,1.64-3.12A4.46,4.46,0,0,1,39,25.08a8.63,8.63,0,0,1,4,.73,21.24,21.24,0,0,1,5.14,3.11q1.06.82,2,1.74c.14.13.21.1.33,0A28.1,28.1,0,0,1,55.27,27a14,14,0,0,1,4.38-1.84,5.5,5.5,0,0,1,3.66.34A4.86,4.86,0,0,1,65.6,28a11.09,11.09,0,0,1,.88,3.81C66.52,32.29,66.51,32.78,66.53,33.22ZM50.37,57.28c1.39,0,2.81-.07,4.22-.17a1.12,1.12,0,0,0,1-.54A64.29,64.29,0,0,0,60,48.82a.44.44,0,0,0,0-.43c-.46-1-.95-2-1.48-2.9a59.68,59.68,0,0,0-3.19-5.16.24.24,0,0,0-.22-.13c-.28,0-.56-.06-.83-.07-1.61-.07-3.21-.17-4.82-.12-1.26,0-2.52.09-3.77.19a.38.38,0,0,0-.33.19,60.47,60.47,0,0,0-4.63,8.08.4.4,0,0,0,0,.37,57.53,57.53,0,0,0,4.68,8.08.28.28,0,0,0,.25.15c.28,0,.56.06.84.07C47.77,57.22,49.05,57.26,50.37,57.28Zm24.11-8.61A2.88,2.88,0,0,0,73.85,47a9.57,9.57,0,0,0-2.56-2.23,24.93,24.93,0,0,0-6-2.67c-.18-.06-.22,0-.26.15-.14.49-.29,1-.45,1.46a49.08,49.08,0,0,1-1.8,4.68.49.49,0,0,0,0,.41c.33.77.66,1.53,1,2.31a40,40,0,0,1,1.31,3.82c.06.19.13.24.32.17s.65-.22,1-.33a22.36,22.36,0,0,0,5.36-2.61A8.49,8.49,0,0,0,74,50.05,2.77,2.77,0,0,0,74.48,48.67ZM64.14,33.18A17.23,17.23,0,0,0,64,31.23a7.43,7.43,0,0,0-.72-2.49,2.26,2.26,0,0,0-1.16-1.14,3.47,3.47,0,0,0-1.75-.13A10.23,10.23,0,0,0,57,28.77a25.65,25.65,0,0,0-4.82,3.6c-.11.1-.1.15,0,.25a48.36,48.36,0,0,1,4.21,5.05.61.61,0,0,0,.47.26c.65.07,1.31.14,2,.24a44,44,0,0,1,4.41.86c.18,0,.22,0,.25-.17s.1-.55.16-.83A26.39,26.39,0,0,0,64.14,33.18ZM36.59,64c0,.5,0,1,0,1.5a8.89,8.89,0,0,0,.63,2.73,2.71,2.71,0,0,0,1,1.32,2.78,2.78,0,0,0,1.85.28,8.41,8.41,0,0,0,2.72-.87,24.68,24.68,0,0,0,5.64-4c.1-.1.11-.15,0-.26a53.87,53.87,0,0,1-4.27-5.14.37.37,0,0,0-.28-.16c-.87-.08-1.74-.2-2.61-.34-1.31-.21-2.62-.46-3.92-.78-.11,0-.16,0-.18.12-.06.33-.14.65-.2,1A23.37,23.37,0,0,0,36.59,64ZM26.24,48.72a2.52,2.52,0,0,0,.58,1.45A8.28,8.28,0,0,0,28.7,52a23.59,23.59,0,0,0,6.61,3.13c.2.07.28,0,.33-.17a49.87,49.87,0,0,1,2.25-6.12.4.4,0,0,0,0-.34,48.8,48.8,0,0,1-2.3-6.22c-.05-.16-.11-.19-.27-.14A27,27,0,0,0,30,44.4a11.1,11.1,0,0,0-3,2.38A3,3,0,0,0,26.24,48.72Zm10.31-15.3c0,.5,0,1.13.08,1.75a33.13,33.13,0,0,0,.6,3.72c0,.15.08.18.23.15a48.45,48.45,0,0,1,6.44-1.12.46.46,0,0,0,.4-.24c.12-.18.26-.36.39-.53a51.08,51.08,0,0,1,3.79-4.51c.11-.12.1-.18,0-.28a26.12,26.12,0,0,0-2.14-1.8A18.28,18.28,0,0,0,42.09,28a6.71,6.71,0,0,0-2.64-.58,2.16,2.16,0,0,0-1.59.63,3.88,3.88,0,0,0-.8,1.41A11.63,11.63,0,0,0,36.55,33.42ZM64.16,63.93c0-.67,0-1.33-.09-2a35.06,35.06,0,0,0-.57-3.53c0-.19-.11-.23-.29-.19A50.43,50.43,0,0,1,57,59.3a.76.76,0,0,0-.65.32,39.17,39.17,0,0,1-2.47,3.14c-.53.62-1.07,1.24-1.64,1.83-.09.08-.16.14,0,.26.64.58,1.28,1.14,2,1.66a19.15,19.15,0,0,0,4.3,2.63,6.7,6.7,0,0,0,3,.63,2,2,0,0,0,1.33-.57,3.7,3.7,0,0,0,.85-1.44A11.29,11.29,0,0,0,64.16,63.93ZM47.39,59.6l.08.12c.87,1.09,1.78,2.15,2.74,3.16.14.15.21.15.34,0,.81-.87,1.6-1.76,2.34-2.69a4.09,4.09,0,0,0,.43-.59C51.33,59.69,49.38,59.68,47.39,59.6Zm0-21.94a51.35,51.35,0,0,1,5.95,0l0-.12c-.89-1.12-1.83-2.21-2.82-3.24-.11-.12-.16-.06-.23,0-.48.54-1,1.07-1.46,1.62S47.82,37,47.35,37.66Zm11,19,1-.16c1.08-.18,2.15-.4,3.22-.65.21,0,.23-.12.17-.3-.29-.91-.58-1.83-.91-2.73-.16-.43-.33-.85-.52-1.33A58.92,58.92,0,0,1,58.38,56.69Zm-19-11c.91-1.79,1.89-3.47,2.94-5.12a.45.45,0,0,0-.31,0c-1.32.19-2.64.45-3.94.75-.15,0-.18.07-.13.22.26.85.53,1.69.83,2.53C38.94,44.64,39.14,45.15,39.36,45.72Zm19-5.16a58.58,58.58,0,0,1,3,5.12c.53-1.37,1-2.71,1.41-4.08.06-.2,0-.22-.17-.25-1-.22-1.95-.42-2.93-.59Zm-19,11c-.54,1.39-1,2.75-1.42,4.13,0,.15,0,.16.14.19,1,.24,2.07.45,3.11.63l1.14.17C41.26,55,40.27,53.34,39.36,51.56Z"/><path class="cls-1" d="M55.28,48.62a4.94,4.94,0,1,1-4.92-4.94A4.92,4.92,0,0,1,55.28,48.62Z"/></svg>