<svg id="Layer_1" data-name="Layer 1" xmlns="http://www.w3.org/2000/svg" viewBox="0 0 100 100"><defs><style>.cls-1{fill:gray;}</style></defs><title>style-components</title><path class="cls-1" d="M27.49,52.93c3.92,0,6,2,6.15,5.41,0,1,0,1.92,0,2.88-.07,1.84-.18,3.62,2.38,3.92.69.08,1,.88,1,1.58a1.5,1.5,0,0,1-1.31,1.57c-1.92.22-2.13,1.44-2,3,.06,1.18,0,2.37,0,3.55a5.71,5.71,0,0,1-7.1,5.61,1.72,1.72,0,0,1-1.6-1.8c0-1,.73-1.53,1.73-1.69,3.47-.57,3.45-.58,3.48-4.23,0-1.82-.31-3.7.75-5.4a1.24,1.24,0,0,0,.1-1c-1.38-2.35-.76-4.91-.83-7.38-.05-1.62-.61-2.54-2.34-2.5-1.42,0-2.94-.17-2.83-2S26.66,52.88,27.49,52.93Z"/><path class="cls-1" d="M74.16,22.9c1.14.05,2.57-.29,2.69,1.47s-1.28,2-2.57,2c-1.9,0-2.39.93-2.4,2.62,0,2.41.43,4.89-.83,7.16a.82.82,0,0,0-.09.64c1.43,2.62.8,5.48,1,8.24a1.81,1.81,0,0,0,2,1.89,9.94,9.94,0,0,1,1.55.08A1.7,1.7,0,0,1,77,48.61c0,1-.65,1.58-1.62,1.79a5.67,5.67,0,0,1-7-5.48c0-1.32,0-2.66,0-4s-.32-2.29-1.79-2.6A1.71,1.71,0,0,1,65,36.51a1.67,1.67,0,0,1,1.56-1.61c1.53-.18,1.85-1.21,1.81-2.54s0-2.51,0-3.76C68.44,24.89,70.47,22.89,74.16,22.9Z"/><path class="cls-1" d="M29.27,38.76a.9.9,0,0,0-.43-.8,4.75,4.75,0,0,0-1.44-.48,7,7,0,0,1-1.66-.54,2.22,2.22,0,0,1-1.47-2A2.29,2.29,0,0,1,25.22,33a3.73,3.73,0,0,1,2.42-.76,3.92,3.92,0,0,1,2.53.78,2.44,2.44,0,0,1,1,2h-2a1.22,1.22,0,0,0-.42-.94,1.6,1.6,0,0,0-1.11-.37,1.72,1.72,0,0,0-1.05.3.92.92,0,0,0-.41.8.78.78,0,0,0,.38.7,5.41,5.41,0,0,0,1.53.5,7,7,0,0,1,1.81.61,2.57,2.57,0,0,1,1,.84,2.18,2.18,0,0,1,.32,1.19,2.28,2.28,0,0,1-1,1.91,4.14,4.14,0,0,1-2.56.73,4.5,4.5,0,0,1-1.91-.39,3.22,3.22,0,0,1-1.31-1.06A2.53,2.53,0,0,1,24,38.38h1.9a1.4,1.4,0,0,0,.52,1.07,2.06,2.06,0,0,0,1.29.37,2,2,0,0,0,1.17-.29A.92.92,0,0,0,29.27,38.76Z"/><path class="cls-1" d="M35.36,30.28V32.4H36.9v1.45H35.36v4.88a1.09,1.09,0,0,0,.19.72.93.93,0,0,0,.71.22,3.32,3.32,0,0,0,.69-.08V41.1a4.65,4.65,0,0,1-1.3.19q-2.25,0-2.25-2.49V33.85H32V32.4H33.4V30.28Z"/><path class="cls-1" d="M41.45,38.32l1.77-5.92h2.09L41.84,42.45a2.81,2.81,0,0,1-2.71,2.2,3.76,3.76,0,0,1-.94-.14V43l.37,0a1.89,1.89,0,0,0,1.11-.27,1.81,1.81,0,0,0,.6-.91l.28-.75L37.49,32.4H39.6Z"/><path class="cls-1" d="M48.52,41.13h-2V28.74h2Z"/><path class="cls-1" d="M54.49,41.29a4.08,4.08,0,0,1-3-1.17A4.28,4.28,0,0,1,50.32,37v-.24a5.15,5.15,0,0,1,.5-2.33,3.91,3.91,0,0,1,1.42-1.61,3.72,3.72,0,0,1,2-.57A3.4,3.4,0,0,1,57,33.38a4.8,4.8,0,0,1,1,3.22v.79h-5.7A2.64,2.64,0,0,0,53,39.1a2.19,2.19,0,0,0,1.6.63,2.67,2.67,0,0,0,2.19-1.09l1.06,1a3.52,3.52,0,0,1-1.4,1.22A4.35,4.35,0,0,1,54.49,41.29Zm-.23-7.48a1.63,1.63,0,0,0-1.3.57A2.9,2.9,0,0,0,52.33,36h3.73v-.14a2.38,2.38,0,0,0-.52-1.49A1.65,1.65,0,0,0,54.26,33.81Z"/></svg>