<?xml version="1.0" encoding="utf-8"?>
<!-- Generator: Adobe Illustrator 22.1.0, SVG Export Plug-In . SVG Version: 6.00 Build 0)  -->
<svg version="1.1" id="Layer_1" xmlns="http://www.w3.org/2000/svg" xmlns:xlink="http://www.w3.org/1999/xlink" x="0px" y="0px"
	 viewBox="0 0 100 100" style="enable-background:new 0 0 100 100;" xml:space="preserve">
<style type="text/css">
	.st0{display:none;fill:#808080;stroke:#FFFFFF;stroke-width:3;stroke-miterlimit:10;}
	.st1{fill:#808080;stroke:#FFFFFF;stroke-miterlimit:10;}
	.st2{fill:#808080;stroke:#FFFFFF;stroke-width:0.5;stroke-miterlimit:10;}
</style>
<path class="st0" d="M55.8,82.4H14.7V43.9h41.2V82.4z"/>
<path class="st1" d="M13.4,44.2v38.6h41.2V44.2H13.4z M38.7,70.5c0,2.8-1.4,3.6-3.2,3.6c-0.5,0-1.1-0.1-1.4-0.2l0.2-1.1
	c0.3,0.1,0.7,0.2,1.1,0.2c1.2,0,1.9-0.5,1.9-2.6v-6.9h1.4V70.5z M43.1,74.1c-1,0-2.1-0.3-2.7-0.7l0.3-1.1c0.6,0.4,1.5,0.7,2.4,0.7
	c1.4,0,2.2-0.7,2.2-1.8c0-1-0.6-1.5-2-2.1c-1.7-0.6-2.8-1.5-2.8-3c0-1.6,1.4-2.8,3.4-2.8c1.1,0,1.8,0.2,2.3,0.5L46,64.9
	c-0.3-0.2-1-0.5-2-0.5c-1.4,0-2,0.9-2,1.6c0,1,0.6,1.5,2.1,2c1.8,0.7,2.7,1.5,2.7,3.1C46.8,72.7,45.6,74.1,43.1,74.1z"/>
<path class="st2" d="M41.3,15.1v38.6h41.2V15.1H41.3z M70.4,36h-3.2v9.3h-1.4V36h-3.2v-1.2h7.8V36z M73.6,45.5c-1,0-2.1-0.3-2.7-0.7
	l0.3-1.1c0.6,0.4,1.5,0.7,2.4,0.7c1.4,0,2.2-0.7,2.2-1.8c0-1-0.6-1.5-2-2.1c-1.7-0.6-2.8-1.5-2.8-3c0-1.6,1.4-2.8,3.4-2.8
	c1.1,0,1.8,0.2,2.3,0.5l-0.4,1.1c-0.3-0.2-1-0.5-2-0.5c-1.4,0-2,0.9-2,1.6c0,1,0.6,1.5,2.1,2c1.8,0.7,2.7,1.5,2.7,3.1
	C77.3,44.1,76.1,45.5,73.6,45.5z"/>
</svg>
